<?xml version="1.0" standalone="no"?>
<!DOCTYPE svg PUBLIC "-//W3C//DTD SVG 20010904//EN"
 "http://www.w3.org/TR/2001/REC-SVG-20010904/DTD/svg10.dtd">
<svg version="1.0" xmlns="http://www.w3.org/2000/svg"
 width="1000.000000pt" height="1080.000000pt" viewBox="0 0 1000.000000 1080.000000"
 preserveAspectRatio="xMidYMid meet">

<g transform="translate(0.000000,1080.000000) scale(0.100000,-0.100000)"
fill="#000000" stroke="none">
<path d="M4372 7615 c-74 -18 -128 -42 -197 -91 -33 -23 -90 -55 -127 -72 -79
-36 -154 -103 -191 -170 -30 -55 -57 -157 -57 -218 0 -23 -9 -61 -20 -85 -34
-76 -24 -175 32 -326 l33 -88 -27 -27 c-23 -22 -28 -35 -28 -77 0 -60 14 -133
42 -220 16 -50 32 -76 72 -115 47 -47 52 -58 73 -143 22 -89 62 -185 83 -198
13 -8 13 -94 0 -132 -6 -17 -22 -35 -36 -42 -16 -7 -34 -31 -49 -66 -23 -51
-29 -57 -102 -93 -43 -22 -172 -82 -288 -133 -230 -103 -301 -148 -376 -242
-92 -115 -128 -222 -208 -622 -48 -244 -55 -294 -47 -340 9 -45 59 -103 111
-126 38 -18 122 -19 1896 -19 2073 0 1905 -6 1994 72 25 22 56 59 68 82 l22
41 0 1030 c0 1155 7 1054 -74 1138 -65 69 -99 81 -243 85 l-128 4 0 32 c0 50
-31 98 -80 124 -44 22 -50 22 -410 22 -328 0 -369 -2 -400 -18 -46 -23 -80
-75 -80 -122 l0 -38 -127 -4 c-120 -3 -131 -5 -182 -33 -56 -31 -106 -88 -128
-148 -8 -22 -12 -151 -12 -428 -1 -218 -4 -399 -7 -402 -12 -12 -183 84 -211
118 -56 66 -84 124 -90 179 -5 49 -2 60 25 103 32 51 66 149 77 225 6 38 14
52 52 83 52 43 82 104 107 212 31 136 18 211 -40 233 -13 5 -22 15 -19 22 71
220 88 282 92 350 8 105 -11 152 -97 243 -54 57 -71 83 -89 136 -27 82 -65
143 -121 193 -112 101 -328 150 -488 111z m269 -99 c145 -44 221 -120 259
-260 10 -38 30 -66 85 -126 42 -45 78 -93 85 -115 14 -42 8 -118 -13 -179
l-13 -38 -18 56 c-21 68 -71 122 -121 132 -43 8 -137 -9 -267 -47 -128 -38
-201 -38 -334 0 -129 37 -235 56 -267 47 -36 -9 -85 -52 -107 -96 -10 -20 -24
-68 -31 -106 l-13 -69 -12 40 c-26 84 -27 139 -6 191 11 27 23 82 26 121 13
155 69 240 199 302 45 21 99 53 120 69 115 92 281 122 428 78z m-506 -631 c22
-3 87 -20 145 -38 143 -42 235 -42 380 0 58 17 131 36 163 43 55 11 60 10 81
-9 40 -38 51 -93 52 -263 1 -161 7 -188 42 -188 8 0 24 7 34 17 29 26 32 9 15
-78 -21 -110 -52 -168 -101 -194 -39 -20 -39 -21 -62 -125 -36 -159 -46 -179
-144 -283 -110 -116 -158 -141 -270 -142 -101 0 -165 31 -252 123 -116 123
-130 151 -164 317 -17 83 -35 115 -65 115 -38 0 -73 73 -100 211 -13 66 -8 80
19 56 21 -19 40 -21 61 -8 12 8 15 44 16 178 1 137 5 176 19 211 20 46 51 74
76 68 8 -2 33 -7 55 -11z m2349 -396 c25 -19 26 -25 26 -113 0 -143 35 -130
-385 -134 -310 -2 -361 -1 -381 13 -23 15 -24 21 -24 113 0 103 8 126 45 135
11 3 171 5 356 6 326 1 337 0 363 -20z m-854 -198 c0 -48 34 -100 80 -123 31
-16 73 -18 405 -18 341 0 373 1 405 19 47 25 71 60 77 115 l6 46 101 0 c110 0
161 -16 203 -61 55 -60 53 -18 53 -1066 0 -675 -3 -980 -11 -1008 -14 -51 -73
-110 -124 -124 -54 -15 -1364 -15 -1418 0 -47 13 -106 63 -123 106 -12 26 -14
213 -14 1018 0 1082 -3 1021 61 1081 47 44 79 52 197 53 l102 1 0 -39z m-1322
-729 c50 -24 69 -27 162 -27 93 0 112 3 162 27 31 14 77 45 102 68 31 29 47
38 50 29 28 -88 28 -88 7 -118 -31 -44 -108 -96 -214 -146 -52 -25 -100 -52
-107 -60 -12 -14 -15 -14 -34 3 -12 10 -46 29 -76 41 -108 45 -240 135 -240
163 0 6 10 37 21 70 l22 58 44 -41 c25 -22 70 -53 101 -67z m567 -208 c-9 -72
-53 -159 -114 -226 -29 -32 -56 -58 -60 -58 -8 0 -146 190 -146 202 0 3 45 29
100 57 56 28 124 72 155 99 l55 50 8 -37 c5 -20 5 -59 2 -87z m-669 -2 c38
-22 88 -48 112 -58 31 -12 41 -21 37 -32 -3 -8 -36 -57 -73 -108 l-67 -94 -56
59 c-77 81 -113 156 -118 248 -5 107 0 113 52 66 24 -22 74 -58 113 -81z m874
-10 l95 -47 5 -565 c3 -311 9 -574 14 -585 5 -11 18 -32 28 -47 10 -14 18 -29
18 -32 0 -3 -112 -6 -250 -6 l-250 0 0 183 c0 217 -9 266 -80 436 -28 68 -50
130 -48 137 2 7 60 75 130 152 70 76 141 161 158 188 34 54 70 160 70 205 0
16 3 29 8 28 4 0 50 -22 102 -47z m-1085 -157 c17 -36 65 -97 131 -167 128
-135 174 -191 174 -210 0 -8 -23 -70 -51 -138 -68 -166 -81 -236 -77 -440 l2
-165 -536 0 -536 0 -26 24 c-14 13 -28 36 -31 51 -7 31 90 527 130 665 33 113
73 183 145 255 63 63 110 88 420 228 l195 88 16 -67 c9 -37 28 -93 44 -124z
m510 -13 c23 -31 61 -85 84 -119 l44 -61 -48 -57 c-99 -115 -157 -114 -257 2
l-47 55 87 119 c47 65 88 119 92 118 3 0 23 -26 45 -57z m69 -531 c26 -64 54
-145 62 -181 14 -69 18 -236 8 -339 l-7 -61 -183 0 -183 0 -3 148 c-5 233 6
289 101 504 l20 44 68 0 68 1 49 -116z"/>
<path d="M5678 5857 c-7 -8 -35 -50 -63 -95 -27 -45 -52 -82 -56 -82 -3 0 -27
23 -52 50 -25 28 -50 50 -55 50 -6 0 -20 -8 -32 -18 -34 -27 -22 -55 63 -145
62 -66 76 -77 94 -70 13 5 52 56 94 123 97 158 93 147 74 176 -17 27 -46 31
-67 11z"/>
<path d="M6022 5738 c-18 -18 -14 -56 7 -68 13 -6 152 -10 385 -10 l366 0 15
24 c13 19 14 29 5 45 -11 21 -17 21 -388 21 -281 0 -381 -3 -390 -12z"/>
<path d="M5678 5233 c-9 -10 -33 -45 -53 -78 -21 -33 -44 -70 -51 -82 -14 -22
-14 -22 -60 27 -48 52 -81 63 -104 36 -20 -25 -8 -52 60 -130 68 -78 89 -93
115 -78 16 8 175 258 175 274 0 13 -39 48 -53 48 -8 0 -21 -8 -29 -17z"/>
<path d="M6022 5118 c-7 -7 -12 -21 -12 -33 0 -44 5 -45 396 -45 325 0 375 2
388 16 9 8 16 22 16 29 0 7 -7 21 -16 29 -13 14 -63 16 -388 16 -276 0 -375
-3 -384 -12z"/>
<path d="M5447 4622 c-26 -29 -21 -44 33 -97 28 -27 50 -54 50 -59 0 -6 -23
-34 -51 -62 -43 -44 -51 -56 -45 -78 4 -16 16 -28 32 -32 22 -6 34 2 78 45 28
28 56 51 62 51 5 0 32 -22 59 -50 54 -54 73 -60 99 -31 24 26 15 48 -44 106
l-49 49 54 57 c30 32 55 62 55 68 0 14 -37 51 -51 51 -6 0 -36 -24 -67 -54
l-57 -55 -57 55 c-61 58 -76 64 -101 36z"/>
<path d="M6022 4498 c-7 -7 -12 -21 -12 -33 0 -45 4 -45 402 -45 371 0 377 0
388 21 9 16 8 26 -5 45 l-15 24 -373 0 c-277 0 -376 -3 -385 -12z"/>
<path d="M2708 2531 c-60 -20 -97 -52 -125 -109 -23 -48 -28 -69 -27 -133 0
-66 5 -84 31 -130 24 -43 42 -60 84 -82 49 -26 61 -29 132 -25 66 4 84 9 119
34 135 95 126 354 -15 425 -46 24 -153 35 -199 20z m157 -93 c37 -29 55 -76
55 -145 0 -103 -53 -169 -135 -167 -56 1 -92 25 -116 77 -36 80 -18 188 39
234 37 31 118 32 157 1z"/>
<path d="M3296 2518 c-13 -18 -16 -54 -16 -186 0 -90 -4 -172 -10 -182 -12
-22 -55 -34 -79 -20 -11 5 -27 32 -36 59 -16 50 -33 65 -60 55 -54 -21 -30
-133 38 -174 43 -27 131 -27 174 0 63 38 68 55 71 256 3 158 1 183 -13 198
-23 22 -51 20 -69 -6z"/>
<path d="M4050 2524 c-138 -60 -184 -263 -88 -395 56 -78 185 -104 278 -56 74
37 115 117 81 158 -24 30 -57 18 -71 -26 -21 -65 -86 -95 -156 -73 -52 17 -84
77 -84 160 0 109 45 168 129 168 50 0 74 -15 110 -68 18 -26 29 -32 50 -30 22
3 26 8 29 40 3 31 -3 43 -35 75 -60 60 -166 81 -243 47z"/>
<path d="M5708 2530 c-17 -11 -178 -406 -178 -439 0 -25 24 -43 52 -39 17 2
28 16 45 58 l22 55 98 3 99 3 13 -38 c7 -21 20 -48 27 -60 24 -38 84 -25 84
18 0 24 -159 411 -177 432 -18 19 -58 22 -85 7z m80 -202 l31 -88 -69 0 c-39
0 -70 3 -70 7 0 22 64 183 70 176 4 -4 21 -47 38 -95z"/>
<path d="M6056 2518 c-13 -19 -16 -58 -16 -226 0 -121 4 -211 10 -223 12 -21
50 -25 68 -7 8 8 12 58 12 160 0 81 3 148 8 148 4 -1 46 -63 95 -139 103 -163
119 -181 155 -181 50 0 52 7 52 245 0 234 -2 245 -47 245 -35 0 -43 -34 -43
-193 l0 -142 -105 159 c-57 88 -110 163 -117 168 -24 15 -57 8 -72 -14z"/>
<path d="M6678 2523 c-21 -24 -168 -398 -168 -427 0 -28 18 -46 46 -46 17 0
27 13 48 60 l26 61 96 -3 96 -3 17 -42 c23 -58 43 -77 74 -69 14 3 28 15 32
25 7 24 -157 431 -182 448 -24 18 -67 16 -85 -4z m81 -181 c17 -46 31 -88 31
-93 0 -5 -31 -9 -70 -9 l-69 0 30 83 c16 45 32 88 35 96 7 20 9 15 43 -77z"/>
<path d="M7136 2525 c-82 -29 -128 -83 -146 -170 -21 -99 7 -194 74 -253 64
-56 180 -69 282 -31 83 31 94 46 94 127 0 94 -10 105 -96 110 -81 4 -124 -9
-124 -38 0 -25 35 -40 91 -40 39 0 39 0 39 -40 0 -39 0 -39 -56 -56 -96 -28
-161 -5 -195 69 -36 80 -16 196 40 236 36 26 90 35 126 21 17 -6 46 -30 66
-53 34 -39 38 -41 63 -29 60 27 8 123 -81 150 -53 16 -128 15 -177 -3z"/>
<path d="M1660 2511 c-6 -12 -10 -101 -10 -221 0 -120 4 -209 10 -221 6 -10
21 -19 33 -19 44 0 52 15 55 103 l4 85 76 4 c133 8 182 48 182 151 0 40 -5 61
-21 81 -37 47 -68 56 -198 56 -109 0 -121 -2 -131 -19z m235 -76 c28 -27 30
-42 13 -79 -12 -29 -58 -46 -120 -46 l-38 0 0 75 0 75 60 0 c51 0 65 -4 85
-25z"/>
<path d="M2113 2519 c-10 -10 -13 -70 -13 -229 0 -227 2 -240 45 -240 38 0 45
19 45 117 l0 93 36 0 c43 0 84 -39 148 -140 35 -56 45 -65 70 -65 16 0 33 7
39 17 15 23 -24 105 -75 160 -21 23 -38 43 -38 45 0 1 9 3 21 3 12 0 36 15 55
34 30 30 34 40 34 85 0 44 -5 56 -34 89 l-34 37 -144 3 c-105 2 -146 0 -155
-9z m245 -76 c34 -30 37 -59 8 -88 -22 -22 -33 -25 -101 -25 l-75 0 0 65 0 65
74 0 c56 0 79 -4 94 -17z"/>
<path d="M3502 2517 c-18 -21 -18 -437 0 -448 7 -5 87 -8 178 -6 l165 2 0 30
0 30 -132 3 -133 3 0 69 0 70 115 0 c99 0 116 2 124 18 6 11 6 24 0 35 -9 15
-26 17 -124 17 l-115 0 0 60 0 59 128 3 127 3 0 30 0 30 -161 3 c-125 2 -164
-1 -172 -11z"/>
<path d="M4387 2523 c-14 -13 -6 -53 12 -63 11 -5 45 -10 75 -10 l56 0 0 -181
c0 -105 4 -188 10 -200 11 -20 45 -25 70 -9 12 8 16 44 18 200 l3 190 58 0
c70 0 97 16 87 53 l-6 27 -189 0 c-103 0 -191 -3 -194 -7z"/>
<path d="M5016 2514 c-14 -13 -16 -47 -16 -220 0 -123 4 -213 10 -225 12 -22
52 -25 69 -6 6 8 12 79 13 183 l3 169 43 -170 c24 -93 48 -175 54 -182 17 -21
65 -16 82 8 8 12 32 90 52 175 21 85 41 154 44 154 3 0 4 -69 2 -154 -2 -100
1 -162 8 -175 12 -23 49 -28 68 -9 17 17 17 439 0 456 -15 15 -110 16 -125 1
-6 -6 -28 -76 -49 -155 -21 -79 -41 -140 -44 -136 -4 4 -21 62 -39 130 -48
183 -41 172 -105 172 -36 0 -60 -5 -70 -16z"/>
<path d="M7542 2518 c-9 -9 -12 -72 -12 -223 0 -151 3 -214 12 -223 8 -8 61
-12 174 -12 135 0 164 3 175 16 9 11 10 20 2 32 -8 14 -31 17 -137 20 l-126 3
0 69 0 70 109 0 c87 0 111 3 122 16 9 11 10 20 2 32 -8 14 -30 18 -122 20
l-111 3 0 59 0 59 121 3 c101 3 124 6 132 20 8 12 7 21 -2 32 -11 13 -39 16
-170 16 -109 0 -161 -4 -169 -12z"/>
<path d="M7986 2508 c-13 -19 -16 -57 -16 -218 0 -213 6 -240 55 -240 35 0 45
28 45 124 l0 86 34 0 c46 0 74 -26 139 -125 45 -70 56 -80 81 -80 49 0 56 27
23 90 -16 29 -45 70 -64 90 -19 20 -34 37 -32 39 2 1 18 8 36 15 47 19 65 45
70 98 5 58 -10 89 -56 120 -31 21 -45 23 -167 23 -126 0 -134 -1 -148 -22z
m254 -66 c14 -11 23 -29 23 -47 0 -47 -33 -65 -119 -65 l-74 0 0 65 0 65 74 0
c56 0 79 -4 96 -18z"/>
<path d="M0 400 l0 -400 5000 0 5000 0 0 400 0 400 -5000 0 -5000 0 0 -400z
m2192 123 c23 -20 23 -57 1 -74 -15 -11 -16 -11 -5 1 27 31 11 72 -33 83 -19
4 -19 5 -1 6 11 0 28 -6 38 -16z m-69 -8 c-3 -9 -8 -14 -10 -11 -3 3 -2 9 2
15 9 16 15 13 8 -4z m-1760 -114 c22 -61 43 -108 47 -104 4 4 24 56 45 116 21
59 42 107 47 107 11 0 9 -5 -42 -149 -23 -64 -44 -107 -53 -109 -15 -3 -17 0
-67 143 -15 44 -31 88 -36 99 -5 13 -3 17 6 14 8 -2 32 -55 53 -117z m517 89
c0 -23 4 -30 20 -30 11 0 20 -4 20 -10 0 -5 -10 -10 -21 -10 -20 0 -21 -4 -17
-71 3 -55 8 -74 23 -85 23 -17 14 -29 -13 -15 -11 6 -22 25 -26 42 -10 51 -7
209 4 209 6 0 10 -13 10 -30z m515 16 c25 -11 33 -19 29 -30 -7 -19 -5 -19
-40 -1 -36 18 -55 19 -78 2 -28 -21 -9 -45 49 -62 87 -25 108 -74 54 -127 -29
-29 -33 -30 -90 -25 -68 6 -72 8 -64 29 5 13 12 14 40 5 50 -15 100 1 100 33
0 16 -8 28 -25 36 -87 40 -105 51 -108 67 -14 70 53 106 133 73z m105 -16 c0
-25 4 -30 25 -30 16 0 25 -6 25 -15 0 -9 -9 -15 -25 -15 -24 0 -25 -3 -25 -60
0 -55 2 -62 25 -72 14 -6 25 -15 25 -20 0 -18 -31 -20 -55 -4 -24 16 -25 20
-25 131 0 96 3 115 15 115 10 0 15 -10 15 -30z m482 -32 l3 -62 36 32 c20 18
45 32 55 32 14 0 9 -9 -21 -40 l-39 -40 42 -60 c40 -57 41 -60 20 -60 -16 0
-32 14 -53 45 -16 25 -33 45 -37 45 -5 0 -8 -20 -8 -45 0 -38 -3 -45 -20 -45
-19 0 -20 7 -20 130 0 122 1 130 20 130 16 0 19 -8 22 -62z m193 30 c1 -20 -2
-24 -11 -17 -8 7 -14 6 -17 -3 -3 -7 -6 2 -6 20 -1 27 3 33 17 30 11 -2 17
-13 17 -30z m-44 -35 c13 -16 12 -17 -3 -4 -17 13 -22 21 -14 21 2 0 10 -8 17
-17z m-1502 -19 c12 -15 21 -40 21 -55 0 -29 0 -29 -65 -29 -72 0 -83 -12 -44
-51 17 -17 30 -20 65 -16 43 4 59 -5 28 -17 -45 -17 -106 3 -123 41 -45 98 56
206 118 127z m191 16 c17 -11 10 -13 -40 -10 -47 2 -75 -28 -75 -80 0 -55 26
-80 82 -80 27 0 42 -4 38 -10 -9 -15 -78 -12 -102 5 -50 35 -50 135 0 170 24
17 74 20 97 5z m265 -13 c20 -16 28 -35 32 -69 5 -42 3 -50 -25 -78 -41 -41
-83 -41 -124 0 -28 28 -30 36 -25 78 9 82 84 119 142 69z m85 7 c0 -14 2 -14
22 0 24 17 38 20 38 9 0 -5 -14 -16 -30 -25 -29 -17 -30 -19 -30 -93 0 -43 -4
-75 -10 -75 -6 0 -10 40 -10 100 0 60 4 100 10 100 6 0 10 -7 10 -16z m537 1
c30 -21 44 -75 32 -120 -25 -88 -143 -88 -168 0 -20 72 20 135 84 135 17 0 40
-7 52 -15z m198 -5 c0 -10 -8 -14 -27 -12 -58 6 -91 -42 -67 -100 11 -28 36
-40 74 -35 12 1 20 -4 20 -13 0 -19 -48 -25 -85 -10 -63 26 -68 148 -6 179 31
15 91 9 91 -9z m5354 -83 c8 -26 17 -47 21 -47 4 0 13 21 21 47 8 25 20 48 26
50 8 3 4 -21 -11 -64 -13 -38 -29 -68 -36 -68 -7 0 -23 30 -36 68 -15 43 -19
67 -11 64 6 -2 18 -25 26 -50z m638 36 c3 -8 -6 -11 -23 -10 -35 3 -43 -20
-10 -32 36 -14 50 -45 30 -65 -16 -17 -33 -20 -58 -10 -28 11 -17 24 14 18 22
-5 30 -3 30 8 0 8 -13 24 -30 36 -32 24 -37 41 -18 60 15 15 60 12 65 -5z
m333 -18 c0 -37 10 -44 30 -20 7 8 17 15 22 15 6 0 5 -7 -2 -15 -12 -14 -11
-29 5 -67 11 -28 -10 -21 -23 7 -6 14 -16 25 -22 25 -5 0 -10 -11 -10 -25 0
-14 -4 -25 -10 -25 -6 0 -10 30 -10 70 0 40 4 70 10 70 6 0 10 -16 10 -35z
m580 32 c0 -4 -34 -104 -45 -136 -3 -8 -8 -11 -11 -8 -8 7 38 147 48 147 4 0
8 -2 8 -3z m100 -41 c0 -26 5 -47 13 -50 10 -5 10 -7 0 -12 -7 -3 -13 -12 -13
-20 0 -8 -4 -14 -10 -14 -5 0 -10 7 -10 15 0 10 -10 15 -30 15 -37 0 -37 7 -3
65 36 58 53 58 53 1z m120 0 c0 -26 5 -47 13 -50 10 -5 10 -7 0 -12 -7 -3 -13
-12 -13 -20 0 -8 -4 -14 -10 -14 -5 0 -10 7 -10 15 0 10 -10 15 -30 15 -37 0
-37 11 -2 66 35 57 52 57 52 0z m114 28 c20 -20 20 -73 0 -102 -15 -22 -64
-31 -64 -12 0 6 9 10 20 10 10 0 24 9 29 19 9 16 8 18 -9 14 -26 -7 -50 13
-50 41 0 43 44 61 74 30z m126 11 c0 -6 -60 -127 -66 -134 -2 -2 -7 -2 -10 1
-3 3 6 29 20 57 14 28 26 53 26 56 0 3 -13 5 -30 5 -16 0 -30 5 -30 10 0 6 20
10 45 10 25 0 45 -2 45 -5z m84 -11 c23 -22 20 -80 -4 -104 -21 -21 -60 -27
-60 -10 0 6 8 10 18 10 18 0 42 18 42 31 0 4 -9 5 -20 2 -26 -7 -50 13 -50 41
0 43 44 61 74 30z m116 2 c0 -7 -7 -19 -15 -26 -13 -11 -12 -14 6 -29 40 -32
0 -82 -51 -66 -31 10 -24 23 13 21 38 -1 44 22 9 40 -20 10 -21 13 -7 24 22
18 18 30 -10 30 -14 0 -25 5 -25 10 0 6 18 10 40 10 27 0 40 -4 40 -14z m110
0 c0 -7 -6 -19 -14 -25 -13 -11 -12 -15 5 -32 23 -23 24 -33 3 -53 -16 -17
-33 -20 -58 -10 -26 10 -18 25 10 18 17 -4 29 -2 35 7 10 16 -7 39 -29 39 -13
0 -13 2 1 18 23 25 21 32 -8 32 -14 0 -25 5 -25 10 0 6 18 10 40 10 27 0 40
-4 40 -14z m107 2 c15 -19 13 -105 -2 -118 -33 -27 -86 8 -70 46 4 11 7 30 6
43 -4 36 44 57 66 29z m-2089 -25 c12 -12 13 -18 4 -21 -14 -4 -17 -62 -2 -62
6 0 10 -5 10 -11 0 -6 -8 -9 -17 -7 -25 5 -40 118 -16 118 2 0 12 -8 21 -17z
m360 0 c12 -12 13 -18 4 -21 -14 -4 -17 -62 -2 -62 6 0 10 -5 10 -11 0 -6 -8
-9 -17 -7 -25 5 -40 118 -16 118 2 0 12 -8 21 -17z m-528 -22 c15 -29 13 -31
-26 -31 -24 0 -34 -4 -31 -12 2 -7 16 -13 30 -13 15 1 27 -3 27 -7 0 -16 -31
-21 -56 -10 -27 13 -34 58 -12 80 18 18 56 14 68 -7z m107 4 c2 -6 -9 -11 -24
-10 -23 0 -28 -4 -28 -25 0 -21 5 -25 28 -25 15 1 26 -4 24 -10 -5 -15 -46
-18 -63 -5 -17 15 -18 62 -2 78 15 15 60 12 65 -3z m177 -1 c9 -8 16 -24 16
-34 0 -22 -26 -50 -46 -50 -32 0 -54 21 -54 50 0 45 52 66 84 34z m56 5 c0 -8
5 -7 15 1 24 20 29 4 6 -19 -12 -12 -21 -32 -21 -46 0 -14 -4 -25 -10 -25 -5
0 -10 23 -10 50 0 28 5 50 10 50 6 0 10 -5 10 -11z m304 -5 c9 -8 16 -24 16
-34 0 -22 -26 -50 -46 -50 -32 0 -54 21 -54 50 0 45 52 66 84 34z m113 1 c2
-6 -9 -11 -24 -10 -23 0 -28 -4 -28 -25 0 -21 5 -25 28 -25 15 1 27 -3 27 -7
0 -16 -31 -21 -56 -10 -29 14 -34 65 -6 81 20 13 54 10 59 -4z m250 0 c2 -6
-9 -11 -24 -10 -23 0 -28 -4 -28 -25 0 -21 5 -25 28 -25 15 1 27 -3 27 -7 0
-16 -31 -21 -56 -10 -29 14 -34 65 -6 81 20 13 54 10 59 -4z m107 -1 c9 -8 16
-24 16 -34 0 -22 -26 -50 -46 -50 -32 0 -54 21 -54 50 0 45 52 66 84 34z m56
6 c0 -6 8 -5 20 2 15 9 22 10 31 1 8 -8 16 -9 29 -1 32 20 50 3 50 -47 0 -25
-4 -45 -10 -45 -5 0 -10 18 -10 41 0 33 -3 40 -17 37 -13 -2 -19 -14 -21 -41
-4 -47 -22 -49 -22 -3 0 19 -5 38 -10 41 -18 11 -40 -15 -40 -46 0 -16 -4 -29
-10 -29 -5 0 -10 23 -10 50 0 28 5 50 10 50 6 0 10 -5 10 -10z m-270 -80 c0
-5 -4 -10 -10 -10 -5 0 -10 5 -10 10 0 6 5 10 10 10 6 0 10 -4 10 -10z"/>
<path d="M2150 500 c0 -5 5 -10 10 -10 6 0 10 5 10 10 0 6 -4 10 -10 10 -5 0
-10 -4 -10 -10z"/>
<path d="M536 418 c-28 -39 -21 -48 39 -48 59 0 67 9 45 51 -15 27 -64 25 -84
-3z"/>
<path d="M986 424 c-50 -50 -21 -144 44 -144 48 0 80 50 66 104 -13 53 -75 75
-110 40z"/>
<path d="M1616 408 c-32 -46 -8 -118 39 -118 28 0 55 34 55 70 0 36 -27 70
-55 70 -13 0 -31 -10 -39 -22z"/>
<path d="M8867 350 c-18 -29 -18 -30 2 -30 17 0 21 6 21 30 0 17 -1 30 -3 30
-1 0 -11 -13 -20 -30z"/>
<path d="M8987 350 c-18 -29 -18 -30 2 -30 17 0 21 6 21 30 0 17 -1 30 -3 30
-1 0 -11 -13 -20 -30z"/>
<path d="M9094 375 c-4 -9 -2 -21 4 -27 15 -15 44 -1 40 19 -4 23 -36 29 -44
8z"/>
<path d="M9304 375 c-4 -9 -2 -21 4 -27 15 -15 44 -1 40 19 -4 23 -36 29 -44
8z"/>
<path d="M9642 374 c2 -11 11 -20 22 -22 13 -3 17 1 14 14 -2 11 -11 20 -22
22 -13 3 -17 -1 -14 -14z"/>
<path d="M9634 325 c-7 -18 3 -35 22 -35 20 0 30 30 13 41 -20 12 -29 11 -35
-6z"/>
<path d="M7378 343 c6 -2 18 -2 25 0 6 3 1 5 -13 5 -14 0 -19 -2 -12 -5z"/>
<path d="M7654 336 c-10 -26 4 -48 28 -44 17 2 23 10 23 28 0 18 -6 26 -23 28
-13 2 -25 -3 -28 -12z"/>
<path d="M8014 336 c-10 -26 4 -48 28 -44 17 2 23 10 23 28 0 18 -6 26 -23 28
-13 2 -25 -3 -28 -12z"/>
<path d="M8484 336 c-10 -26 4 -48 28 -44 17 2 23 10 23 28 0 18 -6 26 -23 28
-13 2 -25 -3 -28 -12z"/>
</g>
</svg>
